<?xml version="1.0" standalone="no"?>
<!DOCTYPE svg PUBLIC "-//W3C//DTD SVG 20010904//EN"
 "http://www.w3.org/TR/2001/REC-SVG-20010904/DTD/svg10.dtd">
<svg version="1.0" xmlns="http://www.w3.org/2000/svg"
 width="144.000000pt" height="144.000000pt" viewBox="0 0 144.000000 144.000000"
 preserveAspectRatio="xMidYMid meet">
<metadata>
Created by potrace 1.14, written by Peter Selinger 2001-2017
</metadata>
<g transform="translate(0.000000,144.000000) scale(0.100000,-0.100000)"
fill="#000000" stroke="none">
<path d="M988 1341 c-9 -28 -12 -49 -8 -46 11 7 33 72 28 86 -2 6 -11 -12 -20
-40z"/>
<path d="M523 1346 c4 -10 7 -22 7 -27 0 -5 4 -9 9 -9 12 0 2 38 -12 47 -7 4
-8 0 -4 -11z"/>
<path d="M330 1328 c0 -16 23 -68 31 -68 5 0 3 12 -3 28 -12 27 -28 51 -28 40z"/>
<path d="M665 1265 c-40 -33 -40 -33 -53 -12 -12 21 -12 21 -10 -5 4 -40 -24
-63 -120 -97 -48 -18 -118 -53 -157 -79 -85 -57 -89 -73 -46 -182 29 -74 29
-75 11 -105 -10 -16 -25 -53 -33 -82 -15 -49 -15 -53 4 -77 10 -13 19 -28 19
-33 0 -14 -73 -56 -130 -74 -30 -9 -56 -21 -58 -27 -1 -5 11 -20 28 -32 29
-21 30 -23 13 -35 -10 -8 -35 -12 -58 -11 -28 3 -32 2 -13 -3 20 -4 25 -10 19
-19 -8 -13 8 -74 23 -89 4 -5 28 -9 52 -9 34 -1 47 3 55 17 5 11 19 19 29 19
11 0 20 4 20 9 0 5 -9 7 -21 4 -18 -5 -19 -2 -13 21 5 22 3 28 -14 33 -25 6
-38 33 -17 33 8 0 15 -4 15 -10 0 -15 43 -34 73 -32 18 2 27 -2 27 -13 0 -17
-74 -95 -91 -95 -18 0 -79 -31 -79 -40 0 -23 33 -38 78 -36 48 2 48 1 37 -21
-23 -44 -8 -72 58 -104 33 -16 76 -30 96 -33 43 -4 87 16 96 44 7 21 25 28 25
10 0 -24 88 -44 195 -43 101 0 165 10 188 30 15 14 17 14 17 1 0 -21 57 -47
94 -42 27 3 63 17 125 47 39 19 56 54 44 87 l-11 29 50 -1 c86 0 106 46 31 71
-21 7 -50 21 -62 31 l-24 17 36 7 c19 4 40 13 47 21 9 11 6 17 -19 29 -16 9
-33 21 -37 27 -4 8 0 8 15 -1 27 -14 52 -6 91 27 29 24 29 26 13 38 -16 12
-15 14 12 20 42 10 53 28 46 72 -5 29 -11 38 -26 38 -11 0 -26 6 -33 12 -16
15 -52 0 -52 -21 0 -8 -7 -16 -15 -20 -20 -7 -19 -23 6 -54 12 -16 16 -28 9
-30 -19 -7 -38 18 -45 61 -4 23 -11 50 -16 59 -7 13 -3 23 16 40 30 26 32 57
6 84 -19 21 -23 64 -7 76 6 4 4 14 -4 24 -13 15 -12 16 20 9 52 -12 62 -11 67
3 3 7 -4 12 -16 12 -27 0 -28 20 -1 21 11 1 25 3 30 4 6 1 15 3 20 4 6 0 10 6
10 12 0 7 -12 10 -30 7 -18 -3 -35 1 -42 9 -12 15 -38 0 -38 -22 0 -6 -13 -12
-30 -13 -16 0 -30 3 -30 7 0 13 28 46 35 40 10 -10 80 19 77 32 -2 6 -4 34 -6
61 -2 45 0 50 25 64 18 9 26 20 23 28 -6 15 -34 11 -34 -5 0 -5 -5 -9 -10 -9
-7 0 -7 6 0 19 12 23 3 51 -16 51 -9 0 -14 -12 -14 -37 0 -52 -13 -71 -34 -53
-9 7 -18 11 -19 9 -2 -2 -11 -16 -20 -31 l-17 -28 -45 35 c-48 36 -96 60 -197
97 -34 12 -70 30 -79 39 -18 18 -93 70 -124 87 -17 9 -27 5 -60 -23z m555
-560 c7 -9 8 -15 2 -15 -5 0 -12 7 -16 15 -3 8 -4 15 -2 15 2 0 9 -7 16 -15z
m-54 -139 c3 -23 -20 -15 -24 8 -3 11 1 17 9 14 7 -2 13 -12 15 -22z m-158
-256 c-1 -28 -11 -39 -21 -22 -5 8 9 52 17 52 3 0 4 -13 4 -30z m-555 -14 c6
-15 -1 -26 -15 -26 -4 0 -8 9 -8 20 0 23 15 27 23 6z"/>
<path d="M270 1200 c-6 -4 -21 -5 -31 -3 -14 4 -20 -2 -24 -23 -4 -16 -8 -34
-10 -40 -5 -16 7 -29 43 -47 33 -16 34 -16 62 13 29 30 29 30 12 65 -19 38
-32 47 -52 35z"/>
<path d="M1120 1155 c-7 -9 -10 -18 -7 -21 3 -3 10 4 17 15 13 25 8 27 -10 6z"/>
<path d="M180 974 c0 -12 38 -50 44 -43 2 2 -7 15 -20 29 -13 13 -24 20 -24
14z"/>
<path d="M125 874 c38 -30 61 -36 32 -10 -15 14 -33 26 -40 26 -7 0 -3 -8 8
-16z"/>
<path d="M240 855 c7 -8 17 -15 22 -15 5 0 3 7 -6 15 -8 8 -18 15 -22 15 -3 0
-1 -7 6 -15z"/>
<path d="M1303 753 c-13 -2 -23 -8 -23 -13 0 -5 14 -4 30 1 27 10 42 21 23 18
-5 -1 -18 -4 -30 -6z"/>
<path d="M120 660 c20 -13 33 -13 25 0 -3 6 -14 10 -23 10 -15 0 -15 -2 -2
-10z"/>
<path d="M1270 300 c0 -5 12 -10 28 -9 24 0 25 1 7 9 -27 12 -35 12 -35 0z"/>
<path d="M160 155 c-17 -10 -20 -14 -9 -15 9 0 22 7 29 15 15 18 12 18 -20 0z"/>
<path d="M1210 155 c0 -2 15 -12 33 -20 l32 -16 -24 21 c-22 19 -41 26 -41 15z"/>
</g>
</svg>
